<svg xmlns="http://www.w3.org/2000/svg" width="246.1" height="246.1">
  <path d="M20.5 214.4H24a44.8 44.8 0 0 1-5.2-21.3v-80.3c0-7.9 2-15.2 5.2-21.3h-3.5A20.5 20.5 0 0 0 0 112v81.9c0 11.3 9.2 20.5 20.5 20.5zM76 214.4h149.6c11.4 0 20.5-9.2 20.5-20.5v-82c0-11.3-9.1-20.4-20.5-20.4h-12.4v-41c0-15.6-12-28.3-26.7-28.3h-76.4c-14.7 0-26.7 12.7-26.7 28.3v41H76a44.8 44.8 0 0 1 5.3 21.3V193c0 7.9-2 15.2-5.3 21.3zM205.1 200a8.9 8.9 0 1 1 0-17.8 8.9 8.9 0 0 1 0 17.8zm11-64.9v33.6H102v-33.6h114zM95.7 50.5c0-8.8 6.5-16 14.4-16h76.4c8 0 14.4 7.2 14.4 16v45c0 9-6.4 16.1-14.4 16.1h-76.4c-8 0-14.4-7.2-14.4-16V50.5zM50 224c13 0 23.7-13.9 23.7-31v-80.2c0-17-10.6-30.9-23.7-30.9-13 0-23.7 13.8-23.7 30.9V193C26.3 210 37 224 50 224z"/>
  <path d="M109.5 55.2h77a4.8 4.8 0 1 0 0-9.6h-77a4.8 4.8 0 1 0 0 9.6zM109.5 77.3h77a4.8 4.8 0 1 0 0-9.5h-77a4.8 4.8 0 1 0 0 9.5zM109.5 99.4h77a4.8 4.8 0 1 0 0-9.5h-77a4.8 4.8 0 0 0 0 9.5z"/>
</svg>
