<svg xmlns="http://www.w3.org/2000/svg" viewBox="0 0 128 128"><defs><clipPath id="a"><path d="M296.54 623.8c113.5 0 205.51-92.01 205.51-205.52 0-113.5-92-205.5-205.5-205.5s-205.52 92-205.52 205.5S183.04 623.8 296.54 623.8" clip-rule="evenodd"/></clipPath><radialGradient id="b" cx="0" cy="0" r=".5" fx="0" fy="0" gradientTransform="translate(296.54 418.28) scale(581.27518)" gradientUnits="userSpaceOnUse" spreadMethod="pad"><stop offset="0" stop-color="#69acdf"/><stop offset=".08" stop-color="#438bc2"/><stop offset=".51" stop-color="#233f7d"/><stop offset="1" stop-color="#233f7d"/></radialGradient><clipPath id="c"><path d="M284.52 337.18a347.61 347.61 0 0 1-9.21-15.44c-2.56-4.45-3.13-9.12 5.97-9.18h44.51c9.11.06 8.54 4.73 5.98 9.18-2.87 5.12-6 10.35-9.22 15.44h-38.03z" clip-rule="evenodd"/></clipPath><radialGradient id="d" cx="0" cy="0" r=".5" fx="0" fy="0" gradientTransform="translate(303.54 324.87) scale(64.60845)" gradientUnits="userSpaceOnUse" spreadMethod="pad"><stop offset="0" stop-color="#69acdf"/><stop offset=".28" stop-color="#3f70ab"/><stop offset=".68" stop-color="#233f7d"/><stop offset="1" stop-color="#233f7d"/></radialGradient></defs><g clip-path="url(#a)" transform="matrix(.31142 0 0 -.31142 -28.35 194.26)"><path fill="url(#b)" fill-rule="evenodd" d="M296.54 623.8c113.5 0 205.51-92.01 205.51-205.52 0-113.5-92-205.5-205.5-205.5s-205.52 92-205.52 205.5S183.04 623.8 296.54 623.8"/></g><path fill="#fff" fill-rule="evenodd" d="M64 79.62c-3.03 4.25-6.5 9.75-9.34 14.96-.82 1.73-.37 3.87 3.38 3.9h16.28c3.75-.03 4.2-2.17 3.38-3.9-2.84-5.21-6.31-10.7-9.34-14.96v-3.87c.6-.22 1.08-.69 1.33-1.28h-7.02c.25.6.73 1.06 1.33 1.28v3.87z"/><path fill="#fff" fill-rule="evenodd" d="M64 11.3a52.7 52.7 0 1 1 0 105.4 52.7 52.7 0 0 1 0-105.4zm0-.7a53.4 53.4 0 1 1 0 106.8 53.4 53.4 0 0 1 0-106.8"/><path fill="#fff" fill-rule="evenodd" d="M61.4 70.93h5.18l1.5-8 2.23-1.98 3.85 9.98h5.55L74.3 57.74l9.35-10.18h-6.08l-8.48 10.02 1.88-10.02H65.8l-4.4 23.37zM45.7 61.6l2.64-14.04h-5.17L40.53 61.6c-.99 6.23 2.14 9.82 7.52 9.77 7.19.08 9.71-4.78 10.88-9.77l2.64-14.03h-5.18L53.76 61.6c-.63 3.74-2.43 5.6-4.95 5.6-3.01-.32-3.62-2.55-3.1-5.6M5.91 61.52a2.48 2.48 0 1 1 0 4.96 2.48 2.48 0 0 1 0-4.96zm116.18 0a2.48 2.48 0 1 1 0 4.96 2.48 2.48 0 0 1 0-4.96M101.16 49.54l.37-1.98H84.24l-.86 4.6h6l-3.52 18.77h5.17l3.52-18.76h4.6a2.69 2.69 0 1 0 4.66-1.85l.24-.3a2.15 2.15 0 1 0-.06-3.61l-1.25-1.43a1.74 1.74 0 0 0 .27-1.04l2.08-.75a1.74 1.74 0 1 0-.3-.9l-2.09.75a1.74 1.74 0 1 0-.76 2.6l1.35 1.54a2.14 2.14 0 0 0 .04 2.1l-.36.42a2.68 2.68 0 0 0-1.81-.16zm5.38-8.48a1.15 1.15 0 1 1 0 2.3 1.15 1.15 0 0 1 0-2.3zm-5.27 1.75a1.23 1.23 0 1 1 0 2.46 1.23 1.23 0 0 1 0-2.46zm3.91 3.75a1.64 1.64 0 1 1 0 3.27 1.64 1.64 0 0 1 0-3.27zM101.84 50a2.15 2.15 0 1 1 0 4.3 2.15 2.15 0 0 1 0-4.3"/><path fill="#fff" d="M93.33 70.8l.57-4.21h.96l-.24 1.76 1.37-1.76h1.25l-1.78 2.08 1.23 2.13h-1.14l-1.01-1.86-.25 1.86h-.96zm3.58 0l.57-4.21h.99l-.57 4.2h-.99zm.84-5.16c0-.11.04-.2.11-.3a.33.33 0 0 1 .26-.13c.1 0 .18.04.25.12.08.09.11.19.11.3 0 .13-.03.23-.1.31a.33.33 0 0 1-.52 0 .45.45 0 0 1-.1-.3zm.72 5.16l1.1-4.21h1.08l.24 1.63.04.31.03.35a1.84 1.84 0 0 1 .07-.27 3.62 3.62 0 0 1 .13-.37l.65-1.65h1.06l.09 4.2h-.89v-2-.17-.16l.01-.34c-.03.14-.1.32-.18.53l-.04.1-.82 2.05h-.59l-.33-2.05-.05-.3-.04-.33-.06.36-.06.3-.5 2.02h-.94zm5.47 0l.25-1.88-1.01-2.33h1.07l.4 1.07.06.2.06.21.1-.28.04-.07.04-.07.64-1.06h1.1l-1.53 2.34-.25 1.87h-.97zm1.76 0l1.8-4.21h1.21l.77 4.2h-.98l-.15-.79h-1.26l-.34.8h-1.05zm1.76-1.73h.76l-.17-.99-.04-.26-.01-.22-.1.3-.06.2-.38.97z"/><g clip-path="url(#c)" transform="matrix(.31142 0 0 -.31142 -28.35 194.26)"><path fill="url(#d)" fill-rule="evenodd" d="M284.52 337.18a347.61 347.61 0 0 1-9.21-15.44c-2.56-4.45-3.13-9.12 5.97-9.18h44.51c9.11.06 8.54 4.73 5.98 9.18-2.87 5.12-6 10.35-9.22 15.44h-38.03z"/></g><path fill="#fff" fill-rule="evenodd" d="M41.02 47.45c-20.3-16.6-21.27 3.66-3.05 18.83-7.22-8.97-20.64-32.08 3.05-18.83"/><path fill="#fff" fill-rule="evenodd" d="M31.86 57.33C2.93 62.57 19.5 78.13 45.7 73.62c-12.9-.37-42.39-5.71-13.85-16.3"/><path fill="#fff" fill-rule="evenodd" d="M31.09 73.48c-17.16 22.21 5.25 21.61 22.18-.54-10.24 8.36-34.65 26.26-22.18.54M21.4 58.3a3.3 3.3 0 1 1 0 6.6 3.3 3.3 0 0 1 0-6.6"/><path fill="#fff" d="M8.53 69.2l.14 1-3.3.46c-.52.08-.85.14-1 .18-.27.08-.46.22-.58.4a.98.98 0 0 0-.13.7c.03.24.11.42.24.55.12.13.28.21.47.24.2.03.6 0 1.2-.08l3.38-.48.14 1.01-3.2.45a8.6 8.6 0 0 1-1.8.12c-.38-.03-.7-.19-.97-.46a2 2 0 0 1-.51-1.17c-.07-.52-.04-.94.11-1.26.14-.32.38-.57.7-.75.32-.18.94-.33 1.85-.46l3.26-.46zM3.2 75.22l6-1.39.23 1-2.67.6 3.13 1.4.31 1.34-2.76-1.31-3.22 2.8-.3-1.29 2.5-2-1.18-.58-1.81.42-.23-1zm1.5 6.15l4.92-1.41-.42-1.44 1-.29 1.11 3.86-1 .29-.41-1.44-4.92 1.4-.28-.97zm2.22 6.37l4.64-2.17-.64-1.36.95-.44 1.7 3.64-.95.44L12 86.5l-4.64 2.17-.43-.92zm1.32 3l5.44-2.9 1.76 3.32-.92.49-1.29-2.41-1.2.64 1.19 2.24-.92.49-1.19-2.25-1.48.8 1.33 2.49-.92.48-1.8-3.39zm2.2 4.29l5.16-3.36.55.86-2.29 1.49 3.42.24.75 1.15-3.05-.29-2.07 3.73-.71-1.1L13.87 95l-1.31-.13L11 95.89l-.56-.85zm4.36 2.98l.69.73c-.58.56-.68 1.09-.31 1.59.18.25.39.4.62.44.23.05.45 0 .64-.13.11-.09.2-.18.24-.29.04-.1.05-.23.03-.37a7.96 7.96 0 0 0-.29-.92 3.08 3.08 0 0 1-.21-1.03c0-.25.07-.5.2-.75.14-.24.32-.45.56-.61.27-.2.56-.32.87-.35.3-.04.6.01.86.15.27.14.52.36.75.69.35.48.5.94.43 1.4-.06.46-.33.88-.8 1.25l-.65-.8c.24-.23.37-.44.39-.64a.93.93 0 0 0-.22-.63 1.02 1.02 0 0 0-.5-.41.53.53 0 0 0-.7.48c-.02.18.06.5.23.98.18.5.27.89.27 1.17 0 .28-.06.55-.2.8s-.36.48-.66.7c-.43.31-.9.44-1.38.4-.49-.06-.94-.37-1.35-.94-.73-1-.56-1.97.5-2.91zm2.16 6.09l3.86-3.36-.98-1.13.78-.69 2.64 3.03-.79.69-.98-1.13-3.86 3.36-.67-.77zm2.14 2.37l4.44-4.28.7.73-4.43 4.28-.7-.73zm4.86-4.63l.8-.78.66.69-.8.78-.66-.69zm-3.34 6.2l4.17-4.47.74.7-3.46 3.7 1.86 1.74-.71.76-2.6-2.43zm5.73 4.95l1.59-4.42.8.62-.86 2.22-.31.72.63-.47 1.95-1.36.78.6-3.89 2.63-.69-.54zm4.99 1.76l.71.67c-.35.32-.7.5-1.04.53-.34.04-.68-.04-1.01-.25a1.53 1.53 0 0 1-.78-1.12 2.7 2.7 0 0 1 .5-1.77c.4-.64.86-1.05 1.4-1.24a1.4 1.4 0 0 1 1.27.13c.44.27.69.65.74 1.14.05.56-.15 1.2-.6 1.93l-.08.11-2.06-1.28c-.18.3-.26.58-.23.82.03.25.13.42.31.54.27.16.56.1.87-.21zm.68-.99c.17-.3.25-.56.23-.78a.63.63 0 0 0-.29-.49.63.63 0 0 0-.58-.04c-.22.08-.42.26-.6.55l1.24.76zm2.1 4.4l2.8-5.5.9.46-1.24 2.44 3.08-1.5 1.22.63-2.78 1.27.07 4.26-1.17-.6.07-3.2-1.2.54-.85 1.65-.9-.46zm4.66 2.27l2.5-5.62.94.41-2.5 5.63-.94-.42zm2.77-6.1l.45-1.03.87.4-.45 1.01-.87-.39zm-.85 7.01l1.9-5.86 1.46.47-.43 4.28 2.16-3.72 1.46.48-1.9 5.86-.9-.3 1.5-4.6-2.46 4.3-.94-.3.55-4.93-1.5 4.61-.9-.29zm6.93 2.22l.67-2.51-.86-3.93 1.15.31.52 2.67 1.76-2.06 1.13.3-2.72 2.98-.67 2.5-.98-.26zm7.22 1.6l-1.1-.19-.18-1.45-1.99-.35-.65 1.3-1.07-.19 3-5.72 1.07.18.92 6.42zm-1.43-2.72l-.28-2.38-1.07 2.14 1.35.24zm2.06.75h1c.02.8.34 1.23.95 1.3.3.04.56 0 .75-.14.2-.14.31-.33.34-.57a.66.66 0 0 0-.05-.36.68.68 0 0 0-.25-.28c-.12-.08-.4-.22-.87-.42a3.08 3.08 0 0 1-.9-.55c-.17-.17-.3-.4-.4-.66a1.86 1.86 0 0 1-.07-.82c.04-.33.15-.63.33-.87.19-.25.42-.43.7-.53.29-.1.63-.13 1.02-.08.59.07 1.03.28 1.32.64.3.36.41.84.36 1.44l-1.02-.07c0-.33-.07-.57-.2-.72a.93.93 0 0 0-.61-.28c-.27-.03-.5 0-.65.1a.53.53 0 0 0-.13.84c.12.13.41.3.88.49.49.21.84.41 1.04.6.21.2.36.42.45.7.08.27.1.59.06.95-.06.53-.28.96-.65 1.28-.38.32-.9.44-1.6.36-1.23-.16-1.83-.94-1.8-2.35zm9.4 2.56l-1.12-.02-.41-1.4-2.02-.04-.44 1.39-1.09-.02 2.08-6.13 1.08.02 1.91 6.2zm-1.84-2.47l-.66-2.3-.72 2.28 1.38.02zm2.52 2.52l-.43-6.1 1.01-.07.36 5.06 2.53-.18.07 1.04-3.54.25zm4.43-.3l-.74-6.06 1-.12.63 5.03 2.52-.3.12 1.03-3.53.43zm8.81-1.4l-1.09.18-.68-1.3-1.98.35-.17 1.45-1.07.2.87-6.42 1.06-.18 3.06 5.71zm-2.27-2.08l-1.08-2.13-.28 2.37 1.36-.24zm2.9 1.79l-1.6-5.96 2.08-.55a3 3 0 0 1 1.18-.15c.26.05.5.19.71.41a2 2 0 0 1 .48.89c.12.46.11.87-.04 1.21-.14.35-.41.61-.8.8.25.09.47.2.65.35.19.14.46.42.83.82l.9 1-1.17.32-1.07-1.1c-.38-.4-.63-.65-.76-.75a.8.8 0 0 0-.35-.16c-.12-.02-.29 0-.52.06l-.2.06.67 2.48-.99.27zm.07-3.7l.73-.2c.44-.12.72-.21.83-.29a.56.56 0 0 0 .24-.31.92.92 0 0 0-.02-.5.86.86 0 0 0-.23-.43.6.6 0 0 0-.38-.16c-.1 0-.37.05-.8.17l-.78.2.4 1.52zm4.85 2.22l-1.9-5.86.96-.32 1.9 5.86-.96.32zm3.02-3.34l.87-.51c.42.67.91.88 1.48.63.28-.13.47-.3.57-.52.1-.22.1-.43 0-.65a.65.65 0 0 0-.23-.3.68.68 0 0 0-.36-.1c-.14 0-.46.02-.96.09-.46.05-.8.05-1.05 0a1.62 1.62 0 0 1-.69-.37c-.2-.18-.37-.4-.49-.66-.14-.31-.19-.62-.16-.93.03-.3.14-.58.33-.81.2-.23.47-.43.83-.6a1.91 1.91 0 0 1 1.46-.12c.44.16.79.51 1.05 1.05l-.91.47c-.18-.29-.36-.46-.55-.52a.93.93 0 0 0-.66.08c-.25.11-.42.25-.5.41a.53.53 0 0 0 .33.79c.16.05.5.04 1-.03.52-.07.92-.08 1.2-.02.27.05.52.18.74.36.21.19.4.45.54.8.22.48.25.96.1 1.42-.15.47-.55.85-1.19 1.13-1.13.5-2.05.14-2.75-1.09zm9.41-2.5l-.97.54-1.07-1.01L93 117l.32 1.43-.95.53-1.27-6.35.94-.52 4.76 4.41zm-2.82-1.22l-1.72-1.66.51 2.33 1.2-.67zm3.34.8l-3.54-5.05.82-.57 4.05 2.18-2.36-3.37.78-.54 3.53 5.04-.84.6-3.97-2.13 2.3 3.29-.77.54zm4.23-3.03l-.73-.93.77-.6.73.93-.77.6zm4.27-3.57l-3.49-3.74-1.1 1.02-.7-.76 2.93-2.74.71.76-1.1 1.02 3.5 3.75-.75.7zm2.28-2.23l-4.43-4.28.7-.73 4.44 4.28-.7.73zm-4.8-4.7l-.8-.77.67-.68.8.77-.66.69zm6.67-.73l.94-.5c.42.57.63 1.1.64 1.57 0 .48-.17.92-.51 1.32-.44.5-.98.73-1.63.7a3.67 3.67 0 0 1-2.25-1.02 3.85 3.85 0 0 1-1.4-2.15c-.11-.65.05-1.24.51-1.76.37-.43.83-.66 1.37-.7.38-.02.82.1 1.31.36l-.44.95c-.29-.17-.57-.24-.83-.21a.97.97 0 0 0-.64.34c-.25.28-.33.61-.23 1 .09.4.41.84.98 1.33.58.5 1.08.78 1.47.82.4.05.72-.07.96-.35.18-.2.25-.45.22-.73a1.98 1.98 0 0 0-.47-.97zm2.98-.04l-.92-.75.6-.75.93.74-.61.76zm2.58-3.6l-5.13-3.32.55-.85 4.26 2.76 1.38-2.13.87.57-1.93 2.98zm2.56-4.32l-4.43-2.56-.76 1.3-.9-.52 2-3.48.91.52-.75 1.3 4.44 2.56-.51.88zM114 88.35l.79-1.69c.2-.42.4-.72.6-.9.19-.17.44-.3.75-.37.31-.08.67-.09 1.08-.02.41.06.88.22 1.42.47.48.22.88.47 1.18.75.3.27.53.54.66.81.13.26.19.54.18.83 0 .28-.1.61-.27.99l-.8 1.73-5.59-2.6zm1.38-.48l3.7 1.72.32-.7c.14-.29.2-.52.21-.68.01-.16-.02-.3-.1-.44-.07-.14-.21-.3-.43-.46a4.92 4.92 0 0 0-.93-.54c-.41-.19-.75-.31-1.02-.37-.26-.05-.5-.05-.68 0a.93.93 0 0 0-.48.32c-.1.12-.23.36-.4.73l-.2.42zm6.3-1.66l-1.1-.44.36-.9 1.1.44-.37.9zm-.57-4.46l.16-1c.79.12 1.27-.13 1.44-.72.09-.3.08-.55-.03-.77a.77.77 0 0 0-.5-.42.65.65 0 0 0-.37 0 .68.68 0 0 0-.31.2c-.1.1-.28.36-.56.79-.25.38-.47.65-.67.8-.2.15-.45.25-.72.3-.28.04-.55.02-.83-.06-.32-.1-.59-.25-.8-.47a1.51 1.51 0 0 1-.42-.77 2.2 2.2 0 0 1 .08-1.02c.16-.57.44-.97.85-1.2.4-.24.89-.28 1.47-.13l-.23 1c-.33-.05-.58-.02-.75.08-.16.11-.28.3-.36.56-.07.26-.08.48 0 .66.06.17.18.28.34.33.16.05.32.02.47-.08.14-.1.35-.36.62-.79.28-.45.53-.76.75-.94.22-.17.47-.28.76-.32.28-.05.6-.02.95.08.52.15.9.43 1.16.85.26.42.3.96.1 1.63-.34 1.2-1.2 1.66-2.6 1.4zm3.85 0l-.48-.13c.1-.22.17-.42.22-.61a.7.7 0 0 0 .02-.44.35.35 0 0 0-.24-.22.32.32 0 0 0-.27.04.49.49 0 0 0-.19.29c-.04.14-.05.29-.04.45l-.38-.2c-.02-.19 0-.39.05-.6.08-.25.2-.43.4-.54.18-.11.38-.14.6-.07.27.07.45.23.56.48.1.25.1.56 0 .93-.08.29-.17.5-.25.63zm-.38-5.47l-5.03-.98-.28 1.48-1.03-.2.77-3.94 1.02.2-.28 1.46 5.02.98-.2 1zm.57-3.16l-6.1-.86.14-1 6.1.85-.14 1zm-6.63-.98l-1.1-.15.12-.95 1.11.16-.13.94zm6.89-1.11l-1.17-.17.13-.96 1.17.17-.13.96z"/></svg>