<?xml version="1.0" encoding="UTF-8" standalone="no"?>
<!-- Created with Inkscape (http://www.inkscape.org/) -->

<svg
   xmlns:dc="http://purl.org/dc/elements/1.1/"
   xmlns:cc="http://creativecommons.org/ns#"
   xmlns:rdf="http://www.w3.org/1999/02/22-rdf-syntax-ns#"
   xmlns:svg="http://www.w3.org/2000/svg"
   xmlns="http://www.w3.org/2000/svg"
   xmlns:sodipodi="http://sodipodi.sourceforge.net/DTD/sodipodi-0.dtd"
   xmlns:inkscape="http://www.inkscape.org/namespaces/inkscape"
   width="36.124443mm"
   height="36.124443mm"
   viewBox="0 0 128 127.99999"
   id="svg5395"
   version="1.1"
   inkscape:version="0.91 r13725"
   sodipodi:docname="logo.svg">
  <defs
     id="defs5397">
    <clipPath
       id="clipPath4150-9-4-26-4"
       clipPathUnits="userSpaceOnUse">
      <path
         style="clip-rule:evenodd"
         inkscape:connector-curvature="0"
         id="path4152-3-8-1-8"
         d="m 296.5419,623.7964 c 113.5009,0 205.5118,-92.0109 205.5118,-205.5118 0,-113.5009 -92.0109,-205.5118 -205.5118,-205.5118 -113.5009,0 -205.5118,92.0109 -205.5118,205.5118 0,113.5009 92.0109,205.5118 205.5118,205.5118" />
    </clipPath>
    <radialGradient
       id="radialGradient4156-7-7-0-8"
       spreadMethod="pad"
       gradientTransform="matrix(581.27518,0,0,581.27518,296.5419,418.2846)"
       gradientUnits="userSpaceOnUse"
       r="0.5"
       cy="0"
       cx="0"
       fy="0"
       fx="0">
      <stop
         id="stop4158-4-1-6-8"
         offset="0"
         style="stop-opacity:1;stop-color:#69acdf" />
      <stop
         id="stop4160-5-7-1-9"
         offset="0.08"
         style="stop-opacity:1;stop-color:#438bc2" />
      <stop
         id="stop4162-2-2-5-7"
         offset="0.51"
         style="stop-opacity:1;stop-color:#233f7d" />
      <stop
         id="stop4164-5-7-9-7"
         offset="1"
         style="stop-opacity:1;stop-color:#233f7d" />
    </radialGradient>
    <clipPath
       id="clipPath4186-4-2-4-6"
       clipPathUnits="userSpaceOnUse">
      <path
         style="clip-rule:evenodd"
         inkscape:connector-curvature="0"
         id="path4188-7-2-90-4"
         d="m 284.525,337.1757 c -3.2131,-5.0862 -6.3485,-10.3155 -9.218,-15.4307 -2.5608,-4.4509 -3.1317,-9.1207 5.9769,-9.1831 l 44.5101,0 c 9.1086,0.0624 8.5377,4.7322 5.9769,9.1831 -2.8695,5.1152 -6.0049,10.3445 -9.218,15.4307 l -38.0279,0 z" />
    </clipPath>
    <radialGradient
       id="radialGradient4192-4-6-9-3"
       spreadMethod="pad"
       gradientTransform="matrix(64.60845,0,0,64.60845,303.539,324.8688)"
       gradientUnits="userSpaceOnUse"
       r="0.5"
       cy="0"
       cx="0"
       fy="0"
       fx="0">
      <stop
         id="stop4194-4-1-1-0"
         offset="0"
         style="stop-opacity:1;stop-color:#69acdf" />
      <stop
         id="stop4196-3-0-7-3"
         offset="0.28"
         style="stop-opacity:1;stop-color:#3f70ab" />
      <stop
         id="stop4198-0-6-7-0"
         offset="0.68"
         style="stop-opacity:1;stop-color:#233f7d" />
      <stop
         id="stop4200-7-1-1-9"
         offset="1"
         style="stop-opacity:1;stop-color:#233f7d" />
    </radialGradient>
  </defs>
  <sodipodi:namedview
     id="base"
     pagecolor="#ffffff"
     bordercolor="#666666"
     borderopacity="1.0"
     inkscape:pageopacity="0.0"
     inkscape:pageshadow="2"
     inkscape:zoom="0.35"
     inkscape:cx="-252.14285"
     inkscape:cy="-221.42858"
     inkscape:document-units="px"
     inkscape:current-layer="layer1"
     showgrid="false"
     fit-margin-top="0"
     fit-margin-left="0"
     fit-margin-right="0"
     fit-margin-bottom="0"
     inkscape:window-width="1366"
     inkscape:window-height="705"
     inkscape:window-x="0"
     inkscape:window-y="30"
     inkscape:window-maximized="1" />
  <metadata
     id="metadata5400">
    <rdf:RDF>
      <cc:Work
         rdf:about="">
        <dc:format>image/svg+xml</dc:format>
        <dc:type
           rdf:resource="http://purl.org/dc/dcmitype/StillImage" />
        <dc:title></dc:title>
      </cc:Work>
    </rdf:RDF>
  </metadata>
  <g
     inkscape:label="Layer 1"
     inkscape:groupmode="layer"
     id="layer1"
     transform="translate(-164.28571,-182.93363)">
    <g
       id="g4144-8-3-7"
       inkscape:label="logo-vendor"
       transform="matrix(0.31141764,0,0,-0.31141764,135.93733,377.19483)">
      <g
         id="g4146-6-6-2">
        <g
           id="g4148-8-5-4"
           clip-path="url(#clipPath4150-9-4-26-4)">
          <g
             id="g4154-8-6-0">
            <path
               d="m 296.5419,623.7964 c 113.5009,0 205.5118,-92.0109 205.5118,-205.5118 0,-113.5009 -92.0109,-205.5118 -205.5118,-205.5118 -113.5009,0 -205.5118,92.0109 -205.5118,205.5118 0,113.5009 92.0109,205.5118 205.5118,205.5118"
               style="fill:url(#radialGradient4156-7-7-0-8);fill-rule:evenodd;stroke:none"
               id="path4166-4-3-6"
               inkscape:connector-curvature="0" />
          </g>
        </g>
      </g>
      <path
         d="m 296.5306,368.1252 c -9.7192,-13.659 -20.8622,-31.2998 -29.975,-48.039 -2.6356,-5.5689 -1.1902,-12.4132 10.8403,-12.4982 l 21.2961,0 9.6942,0 21.2961,0 c 12.0306,0.085 13.4759,6.9293 10.8403,12.4982 -9.1128,16.7394 -20.2561,34.3803 -29.9753,48.0393 l 0,12.4129 c 1.9236,0.7189 3.4725,2.2232 4.2503,4.1182 l -22.5173,0 c 0.7778,-1.895 2.3264,-3.3999 4.2503,-4.1185 l 0,-12.4129 z"
         style="fill:#ffffff;fill-opacity:1;fill-rule:evenodd;stroke:none"
         id="path4168-3-9-2"
         inkscape:connector-curvature="0" />
      <path
         d="m 296.5422,587.5129 c 93.4622,0 169.2281,-75.7661 169.2281,-169.228 0,-93.4629 -75.7659,-169.2287 -169.2281,-169.2287 -93.4625,0 -169.2286,75.7658 -169.2286,169.2287 0,93.4619 75.7661,169.228 169.2286,169.228 z m 0,2.2677 c 94.7146,0 171.4958,-76.7815 171.4958,-171.4957 0,-94.7152 -76.7812,-171.4964 -171.4958,-171.4964 -94.7149,0 -171.4963,76.7812 -171.4963,171.4964 0,94.7142 76.7814,171.4957 171.4963,171.4957"
         style="fill:#ffffff;fill-opacity:1;fill-rule:evenodd;stroke:none"
         id="path4170-1-4-9"
         inkscape:connector-curvature="0" />
      <path
         d="m 288.222,396.023 16.607,0 4.824,25.6759 7.162,6.3643 3e-4,3e-4 12.3381,-32.0405 17.8376,0 -17.3821,42.3535 30.0232,32.6863 -19.5288,0 -27.2168,-32.1542 6.0412,32.1542 -16.6071,0 -14.0986,-75.0398 z"
         style="fill:#ffffff;fill-opacity:1;fill-rule:evenodd;stroke:none"
         id="path4172-4-8-9"
         inkscape:connector-curvature="0" />
      <path
         d="m 237.7806,426.0081 8.4651,45.0547 -16.6071,0 -8.4651,-45.0547 c -3.1765,-19.9902 6.8712,-31.5229 24.1464,-31.3693 23.0785,-0.2526 31.1842,15.3729 34.9387,31.3693 l 8.4651,45.0547 -16.6071,0 -8.4651,-45.0547 c -2.0182,-11.9891 -7.804,-17.9444 -15.8712,-17.9912 -9.6916,1.0596 -11.635,8.2179 -9.9997,17.9912"
         style="fill:#ffffff;fill-opacity:1;fill-rule:evenodd;stroke:none"
         id="path4174-9-1-0"
         inkscape:connector-curvature="0" />
      <path
         d="m 110.0163,426.2343 c 4.3906,0 7.95,-3.5594 7.95,-7.9497 0,-4.3906 -3.5594,-7.9501 -7.95,-7.9501 -4.3903,0 -7.9498,3.5595 -7.9498,7.9501 0,4.3903 3.5595,7.9497 7.9498,7.9497 z m 373.0507,0 c 4.3906,0 7.95,-3.5594 7.95,-7.9497 0,-4.3906 -3.5594,-7.9501 -7.95,-7.9501 -4.3903,0 -7.9498,3.5595 -7.9498,7.9501 0,4.3903 3.5595,7.9497 7.9498,7.9497"
         style="fill:#ffffff;fill-opacity:1;fill-rule:evenodd;stroke:none"
         id="path4176-2-2-8"
         inkscape:connector-curvature="0" />
      <path
         d="m 415.8618,464.7067 1.1942,6.3561 -55.5108,0 -2.776,-14.7756 19.2767,0 -11.3227,-60.2642 16.6071,0 11.3227,60.2642 14.773,0 c 0.0397,-4.7304 3.8863,-8.5532 8.6258,-8.5532 4.7645,0 8.627,3.8625 8.627,8.6269 0,2.2661 -0.8742,4.328 -2.3034,5.8672 l 0.7832,0.9351 c 1.0533,-0.6525 2.2955,-1.0295 3.6255,-1.0295 3.8083,0 6.8958,3.0875 6.8958,6.8958 0,3.8081 -3.0875,6.8956 -6.8958,6.8956 -1.4142,0 -2.7295,-0.4263 -3.8234,-1.1568 l -4.0246,4.5969 c 0.559,0.8725 0.883,1.9097 0.883,3.0226 0,0.1001 -0.003,0.1999 -0.008,0.2985 l 6.6907,2.4086 c 1.0105,-1.4766 2.7079,-2.4452 4.6321,-2.4452 3.0982,0 5.6097,2.5115 5.6097,5.6098 0,3.098 -2.5115,5.6095 -5.6097,5.6095 -3.098,0 -5.6095,-2.5115 -5.6095,-5.6095 0,-0.0904 0.002,-0.1806 0.006,-0.2699 l -6.7056,-2.4139 c -1.0123,1.4629 -2.702,2.4216 -4.616,2.4216 -3.098,0 -5.6095,-2.5115 -5.6095,-5.6095 0,-3.0983 2.5115,-5.6098 5.6095,-5.6098 0.7725,0 1.5086,0.1565 2.1784,0.4389 l 4.3172,-4.9309 c -0.5207,-0.97 -0.8164,-2.0787 -0.8164,-3.2565 0,-1.2636 0.3402,-2.4474 0.9335,-3.4659 l -1.1483,-1.3714 c -1.1016,0.5103 -2.3284,0.7954 -3.6219,0.7954 -0.7568,0 -1.4904,-0.0978 -2.19,-0.2809 z m 17.2721,27.2497 c 2.0423,0 3.6972,-1.6548 3.6972,-3.6969 0,-2.0424 -1.6549,-3.6972 -3.6972,-3.6972 -2.0421,0 -3.697,1.6548 -3.697,3.6972 0,2.0421 1.6549,3.6969 3.697,3.6969 z m -16.9246,-5.6219 c 2.1801,0 3.947,-1.7668 3.947,-3.9467 0,-2.1798 -1.7669,-3.9469 -3.947,-3.9469 -2.1795,0 -3.9467,1.7671 -3.9467,3.9469 0,2.1799 1.7672,3.9467 3.9467,3.9467 z m 12.5748,-12.0509 c 2.9021,0 5.2543,-2.3522 5.2543,-5.2541 0,-2.9021 -2.3522,-5.2543 -5.2543,-5.2543 -2.9018,0 -5.254,2.3522 -5.254,5.2543 0,2.9019 2.3522,5.2541 5.254,5.2541 z m -10.7323,-11.018 c 3.8138,0 6.905,-3.0912 6.905,-6.9047 0,-3.8137 -3.0912,-6.9049 -6.905,-6.9049 -3.8134,0 -6.9046,3.0912 -6.9046,6.9049 0,3.8135 3.0912,6.9047 6.9046,6.9047"
         style="fill:#ffffff;fill-opacity:1;fill-rule:evenodd;stroke:none"
         id="path4178-0-9-1"
         inkscape:connector-curvature="0" />
      <path
         d="m 390.7222,396.4569 1.8263,13.5253 3.0977,0 -0.7823,-5.654 4.4027,5.654 4.0014,0 -5.7007,-6.679 3.9362,-6.8463 -3.6584,0 -3.2403,5.9602 -0.807,-5.9602 -3.0756,0 z m 11.5069,0 1.8321,13.5253 3.1541,0 -1.8321,-13.5253 -3.1541,0 z m 2.6901,16.5717 c 0,0.3469 0.1185,0.659 0.356,0.9428 0.2376,0.284 0.5128,0.4257 0.8283,0.4257 0.3184,0 0.5911,-0.1323 0.8201,-0.3974 0.2296,-0.2647 0.3427,-0.5865 0.3427,-0.9711 0,-0.3816 -0.1106,-0.7064 -0.3291,-0.9746 -0.2186,-0.2679 -0.4963,-0.4002 -0.8337,-0.4002 -0.3265,0 -0.6043,0.1355 -0.8362,0.4067 -0.2322,0.271 -0.3481,0.5928 -0.3481,0.9681 z m 2.3148,-16.5717 3.5396,13.5253 3.4401,0 0.7745,-5.2379 0.1267,-1.0154 0.1187,-1.1006 c 0.0298,0.161 0.0621,0.3027 0.0944,0.4257 0.0326,0.123 0.0729,0.2682 0.1267,0.432 0.0513,0.1673 0.1134,0.3501 0.1866,0.5519 0.07,0.1987 0.1508,0.4099 0.2401,0.6307 l 2.069,5.3136 3.4157,0 0.2778,-13.5253 -2.8542,0 -0.0164,6.4489 c 0,0.1168 0,0.2965 0,0.5363 0,0.2395 0,0.4192 0,0.536 l 0.0487,1.0721 c -0.1051,-0.4383 -0.3047,-1.0092 -0.5936,-1.709 l -0.1187,-0.3062 -2.6385,-6.5781 -1.8751,0 -1.082,6.5688 -0.1593,0.9963 -0.1188,1.0188 c -0.051,-0.3943 -0.1159,-0.7727 -0.1888,-1.1384 l -0.197,-0.9966 -1.6053,-6.4489 -3.0109,0 z m 17.5479,0 0.8146,6.0327 -3.2564,7.4926 3.4452,0 1.2654,-3.456 0.205,-0.6089 0.2131,-0.7126 0.3402,0.8988 c 0.0269,0.0661 0.0646,0.1483 0.1105,0.2492 0.0485,0.0978 0.0836,0.167 0.1026,0.2112 l 2.056,3.4183 3.564,0 -4.9402,-7.5305 -0.8065,-5.9948 -3.1135,0 z m 5.6656,0 5.7954,13.5253 3.8716,0 2.4579,-13.5253 -3.1377,0 -0.4669,2.5512 -4.047,0 -1.1061,-2.5512 -3.3672,0 z m 5.6364,5.5628 2.4417,0 -0.5289,3.1597 -0.1188,0.8388 -0.0485,0.6939 -0.3078,-0.9776 -0.2129,-0.6211 -1.2248,-3.0937 z"
         style="fill:#ffffff;fill-opacity:1;fill-rule:nonzero;stroke:none"
         id="path4180-6-3-3"
         inkscape:connector-curvature="0" />
      <g
         id="g4182-8-9-1">
        <g
           id="g4184-9-0-1"
           clip-path="url(#clipPath4186-4-2-4-6)">
          <g
             id="g4190-2-8-0">
            <path
               d="m 284.525,337.1757 c -3.2131,-5.0862 -6.3485,-10.3155 -9.218,-15.4307 -2.5608,-4.4509 -3.1317,-9.1207 5.9769,-9.1831 l 44.5101,0 c 9.1086,0.0624 8.5377,4.7322 5.9769,9.1831 -2.8695,5.1152 -6.0049,10.3445 -9.218,15.4307 l -38.0279,0 z"
               style="fill:url(#radialGradient4192-4-6-9-3);fill-rule:evenodd;stroke:none"
               id="path4202-6-8-3"
               inkscape:connector-curvature="0" />
          </g>
        </g>
      </g>
      <path
         d="m 222.7479,471.416 c -65.1569,53.339 -68.3022,-11.7311 -9.7898,-60.4496 -23.1715,28.8062 -66.272,103.0093 9.7898,60.4496"
         style="fill:#ffffff;fill-opacity:1;fill-rule:evenodd;stroke:none"
         id="path4204-6-5-4"
         inkscape:connector-curvature="0" />
      <path
         d="M 193.3265,439.71 C 100.423,422.8886 153.6704,372.8863 237.799,387.3969 196.3638,388.5684 101.6929,405.7432 193.3265,439.71"
         style="fill:#ffffff;fill-opacity:1;fill-rule:evenodd;stroke:none"
         id="path4206-4-0-0"
         inkscape:connector-curvature="0" />
      <path
         d="m 190.8641,387.8351 c -55.0925,-71.3214 16.8525,-69.3842 71.2349,1.7572 -32.9006,-26.854 -111.2896,-84.3531 -71.2349,-1.7572"
         style="fill:#ffffff;fill-opacity:1;fill-rule:evenodd;stroke:none"
         id="path4208-9-9-3"
         inkscape:connector-curvature="0" />
      <path
         d="m 159.7518,436.614 c 5.859,0 10.609,-4.7501 10.609,-10.6084 0,-5.859 -4.75,-10.609 -10.609,-10.609 -5.8583,0 -10.6083,4.75 -10.6083,10.609 0,5.8583 4.75,10.6084 10.6083,10.6084"
         style="fill:#ffffff;fill-opacity:1;fill-rule:evenodd;stroke:none"
         id="path4210-5-6-9"
         inkscape:connector-curvature="0" />
      <path
         d="m 118.4094,401.6081 0.4547,-3.2341 -10.6107,-1.4913 c -1.6514,-0.2321 -2.7184,-0.4192 -3.204,-0.5712 -0.8467,-0.2633 -1.4646,-0.699 -1.8635,-1.3039 -0.3943,-0.6044 -0.5315,-1.3496 -0.4076,-2.2297 0.1049,-0.7481 0.3597,-1.3357 0.7594,-1.7632 0.3988,-0.4232 0.9099,-0.6817 1.527,-0.7716 0.6129,-0.0907 1.8978,10e-4 3.8503,0.2758 l 10.8389,1.5234 0.4563,-3.2483 -10.2911,-1.4462 c -2.6278,-0.3693 -4.5499,-0.4952 -5.7566,-0.381 -1.2121,0.1182 -2.2496,0.6143 -3.1133,1.4976 -0.8683,0.883 -1.4117,2.1322 -1.6376,3.7426 -0.2356,1.6741 -0.1182,3.0257 0.3515,4.0498 0.4657,1.0239 1.2186,1.823 2.2493,2.4004 1.0304,0.5774 3.0126,1.0701 5.9459,1.4822 l 10.4511,1.4687 z m -17.0836,-19.374 19.2782,4.4507 0.7347,-3.1822 -8.5595,-1.9763 10.0508,-4.4827 0.9927,-4.3002 -8.8846,4.2228 -10.3212,-8.9875 -0.9533,4.1292 8.0435,6.4432 -3.8208,1.8459 -5.8257,-1.3451 -0.7348,3.1822 z m 4.8198,-19.7612 15.7994,4.5304 -1.3283,4.6318 3.2193,0.9232 3.553,-12.3899 -3.2193,-0.923 -1.3244,4.6185 -15.7997,-4.5306 -0.9,3.1396 z m 7.1291,-20.4383 14.8966,6.9463 -2.0367,4.367 3.0357,1.4154 5.447,-11.6813 -3.0353,-1.4156 -2.0305,4.3545 -14.8963,-6.9463 -1.3805,2.96 z m 4.2333,-9.6494 17.469,9.2885 5.6532,-10.6319 -2.9571,-1.5724 -4.1196,7.7486 -3.8724,-2.0591 3.8279,-7.1989 -2.941,-1.5639 -3.8279,7.1992 -4.7545,-2.528 4.2582,-8.0087 -2.9444,-1.5658 -5.7914,10.8924 z m 7.0551,-13.7693 16.5935,10.7759 1.779,-2.7394 -7.3675,-4.7846 10.9777,-0.7747 2.4035,-3.7015 -9.7929,0.9298 -6.6248,-11.9759 -2.3083,3.5544 5.355,8.8055 -4.2214,0.4278 -5.0148,-3.2567 -1.779,2.7394 z m 14.038,-9.5664 2.1884,-2.3618 c -1.8349,-1.7771 -2.1665,-3.4759 -0.9913,-5.093 0.5797,-0.7977 1.2458,-1.2759 1.9998,-1.4284 0.7532,-0.1587 1.4364,-0.01 2.0552,0.4397 0.3651,0.2653 0.6176,0.5683 0.7545,0.9127 0.1406,0.347 0.1707,0.7447 0.0964,1.1917 -0.0742,0.4473 -0.3761,1.4349 -0.9039,2.9761 -0.4777,1.3785 -0.7096,2.4738 -0.686,3.2879 0.0167,0.8152 0.2389,1.6146 0.6664,2.3978 0.4275,0.7829 1.0171,1.4446 1.7663,1.9888 0.8719,0.6338 1.802,1.0077 2.7893,1.1217 0.987,0.1074 1.9142,-0.0559 2.7779,-0.4927 0.8634,-0.4436 1.6676,-1.1744 2.4148,-2.2031 1.1211,-1.5429 1.5784,-3.0495 1.368,-4.5238 -0.2038,-1.4746 -1.0709,-2.8049 -2.5934,-3.9855 l -2.067,2.5472 c 0.7744,0.7447 1.1931,1.4301 1.2543,2.067 0.0604,0.6302 -0.1692,1.3065 -0.6862,2.0183 -0.5174,0.7118 -1.067,1.1548 -1.6441,1.3221 -0.5797,0.1709 -1.0894,0.0969 -1.5367,-0.2279 -0.436,-0.3169 -0.6741,-0.7577 -0.7177,-1.3246 -0.0474,-0.5695 0.2134,-1.6098 0.7682,-3.1261 0.5816,-1.6157 0.8739,-2.8721 0.8798,-3.7735 0.005,-0.9011 -0.2157,-1.7569 -0.6587,-2.5571 -0.4473,-0.8031 -1.15,-1.5525 -2.1116,-2.251 -1.3898,-1.01 -2.8675,-1.4292 -4.4345,-1.2634 -1.5692,0.1695 -3.0146,1.1636 -4.3359,2.982 -2.3368,3.2165 -1.8093,6.3386 1.5877,9.3589 z m 6.9149,-19.5548 12.4044,10.783 -3.1609,3.6366 2.5273,2.1971 8.4561,-9.7274 -2.5277,-2.1971 -3.1521,3.6261 -12.4047,-10.7833 -2.1424,2.465 z m 6.8879,-7.6181 14.2324,13.7441 2.2686,-2.3494 -14.2322,-13.7441 -2.2688,2.3494 z m 15.5874,14.8669 2.5812,2.4928 2.1283,-2.2034 -2.5815,-2.4928 -2.128,2.2034 z m -10.7198,-19.9129 13.3835,14.3519 2.3885,-2.2272 -11.109,-11.9129 5.9601,-5.5576 -2.2748,-2.4392 -8.3483,7.785 z m 18.4184,-15.9006 5.0879,14.2112 2.5736,-2.0109 -2.7575,-7.1286 -1.0024,-2.315 2.0223,1.5182 6.2679,4.3861 2.5121,-1.9625 -12.5039,-8.4172 -2.2,1.7187 z m 16.0075,-5.633 2.287,-2.1733 c -1.1157,-1.0029 -2.2291,-1.5676 -3.3358,-1.696 -1.1137,-0.1301 -2.1951,0.1386 -3.2536,0.8002 -1.4729,0.9201 -2.302,2.1226 -2.4916,3.6099 -0.2305,1.7354 0.2979,3.6326 1.5843,5.6911 1.2693,2.0316 2.7617,3.3588 4.4764,3.9822 1.4531,0.5261 2.8225,0.3872 4.1035,-0.4133 1.4258,-0.891 2.2178,-2.1187 2.3672,-3.6791 0.178,-1.7839 -0.468,-3.852 -1.9375,-6.2036 l -0.2412,-0.36 -6.6019,4.1252 c -0.5851,-0.9709 -0.8343,-1.8473 -0.7492,-2.6334 0.0879,-0.7886 0.4246,-1.3629 1.0105,-1.7288 0.8479,-0.5298 1.7756,-0.3056 2.7819,0.6789 z m 2.1796,3.1575 c 0.5672,0.9604 0.8107,1.8017 0.7296,2.5152 -0.085,0.7157 -0.3892,1.2376 -0.9167,1.5672 -0.5544,0.3464 -1.1834,0.3918 -1.8725,0.1324 -0.7056,-0.2599 -1.3337,-0.8396 -1.8899,-1.747 l 3.9495,-2.4678 z m 6.7323,-14.0925 8.9824,17.6287 2.9101,-1.4831 -3.9881,-7.827 9.8943,4.8178 3.9323,-2.0036 -8.9456,-4.0915 0.2503,-13.6834 -3.7761,1.9239 0.235,10.3031 -3.8698,-1.7402 -2.7145,-5.3277 -2.9103,1.483 z m 14.9856,-7.3289 8.0473,18.0748 2.9838,-1.3283 -8.0476,-18.0748 -2.9835,1.3283 z m 8.8832,19.6239 1.4599,3.2783 2.7983,-1.2461 -1.4595,-3.2783 -2.7987,1.2461 z m -2.7175,-22.5297 6.1137,18.8172 4.6574,-1.5134 -1.3714,-13.7463 6.944,11.9358 4.6701,-1.5177 -6.1141,-18.8166 -2.8871,0.938 4.813,14.8124 -7.8798,-13.8161 -3.0055,0.9766 1.7727,15.8 -4.8132,-14.8122 -2.8998,0.9423 z m 22.2522,-7.1136 2.1558,8.045 -2.7703,12.6032 3.7017,-0.9922 1.6634,-8.5481 5.652,6.5883 3.6354,-0.974 -8.7346,-9.5494 -2.1484,-8.0181 -3.155,0.8453 z m 23.182,-5.1658 -3.5064,0.6185 -0.6168,4.674 -6.3783,1.1248 -2.0965,-4.1958 -3.4296,0.6046 9.6554,18.3881 3.4157,-0.6024 2.9565,-20.6118 z m -4.5791,8.7548 -0.9206,7.6184 -3.439,-6.8497 4.3596,-0.7687 z m 6.6059,-2.4055 3.2196,-0.0102 c 0.0482,-2.5537 1.0647,-3.9549 3.0489,-4.1984 0.9786,-0.1202 1.7825,0.0411 2.4084,0.4884 0.6295,0.4428 0.987,1.0437 1.0802,1.8028 0.0547,0.4482 0.005,0.8397 -0.153,1.1744 -0.1579,0.3393 -0.4283,0.6327 -0.8059,0.8833 -0.3779,0.2506 -1.3059,0.7036 -2.7933,1.3686 -1.3334,0.5907 -2.2929,1.1681 -2.872,1.7405 -0.5851,0.5683 -1.0182,1.2761 -1.2994,2.1228 -0.281,0.8467 -0.3629,1.7292 -0.2501,2.6481 0.1316,1.0701 0.4921,2.0047 1.0823,2.8052 0.5944,0.7948 1.3462,1.3618 2.2547,1.6954 0.913,0.3288 1.9961,0.4187 3.2581,0.2636 1.893,-0.2324 3.3069,-0.9255 4.2415,-2.0848 0.9397,-1.1549 1.3212,-2.6961 1.1461,-4.6146 l -3.2726,0.2251 c -0.0162,1.0743 -0.2322,1.8482 -0.656,2.3272 -0.4201,0.474 -1.0712,0.7674 -1.944,0.8745 -0.8736,0.1072 -1.5726,0.007 -2.0885,-0.3004 -0.5205,-0.3076 -0.8139,-0.7308 -0.8813,-1.2796 -0.0655,-0.5349 0.0944,-1.0097 0.479,-1.4281 0.3847,-0.4229 1.3232,-0.9419 2.8103,-1.5701 1.5786,-0.6766 2.6969,-1.3195 3.3599,-1.9301 0.663,-0.6106 1.1378,-1.3561 1.4207,-2.2261 0.2826,-0.8747 0.3515,-1.8995 0.2067,-3.0792 -0.2095,-1.7054 -0.9108,-3.0719 -2.1005,-4.1049 -1.1943,-1.0321 -2.9069,-1.4111 -5.1381,-1.1372 -3.9461,0.4847 -5.8694,2.9993 -5.7617,7.5438 z m 30.1538,-8.2293 -3.5606,0.0621 -1.3402,4.5201 -6.4757,0.1131 -1.4142,-4.4719 -3.4818,0.0607 6.66,19.6718 3.4679,-0.0603 6.1446,-19.8956 z m -5.8923,7.9308 -2.1011,7.3806 -2.3252,-7.3035 4.4263,-0.0771 z m 8.0849,-8.0782 -1.3688,19.5758 3.2578,0.2279 1.1362,-16.249 8.1292,0.5686 0.2324,-3.327 -11.3868,-0.7963 z m 14.2543,0.9199 -2.3916,19.4777 3.2417,0.398 1.9851,-16.1674 8.0881,0.9932 0.4068,-3.3103 -11.3301,-1.3912 z m 28.2864,4.5487 -3.5065,-0.6185 -2.1781,4.1817 -6.3788,-1.1248 -0.5346,-4.6599 -3.4297,-0.6046 2.7842,20.5812 3.4158,0.6027 9.8277,-18.3578 z m -7.2972,6.6606 -3.4708,6.8443 -0.8889,-7.6128 4.3597,0.7685 z m 9.3228,-5.741 -5.1208,19.1115 6.6609,1.7844 c 1.7042,0.4566 2.9699,0.61 3.7913,0.4629 0.8218,-0.1472 1.5823,-0.5826 2.276,-1.3028 0.6993,-0.7234 1.2024,-1.6762 1.5185,-2.8548 0.4005,-1.4956 0.3679,-2.797 -0.1043,-3.9005 -0.4765,-1.1055 -1.3414,-1.9525 -2.5968,-2.5367 0.8078,-0.3084 1.5103,-0.6874 2.1055,-1.148 0.5998,-0.4595 1.4831,-1.3337 2.649,-2.6238 l 2.8993,-3.2196 -3.7644,-1.0088 -3.411,3.5453 c -1.2251,1.2787 -2.0384,2.0721 -2.4378,2.37 -0.3951,0.2996 -0.78,0.4731 -1.1488,0.5315 -0.3674,0.0544 -0.9159,-0.0164 -1.6455,-0.212 l -0.654,-0.1752 2.1376,-7.9778 -3.1547,-0.8456 z m 0.199,11.876 2.3494,0.6296 c 1.4329,0.3838 2.3281,0.6905 2.6864,0.9198 0.3583,0.2296 0.6063,0.5681 0.7483,1.0163 0.1378,0.447 0.1253,0.9921 -0.0442,1.6239 -0.1633,0.6098 -0.419,1.0659 -0.7583,1.3706 -0.3435,0.3039 -0.7407,0.4691 -1.1959,0.4949 -0.32,0.0193 -1.1908,-0.1661 -2.6056,-0.5454 l -2.4786,-0.6641 1.2985,-4.8456 z m 15.5741,-7.1266 -6.114,18.817 3.1062,1.0094 6.114,-18.8172 -3.1062,-1.0092 z m 9.7263,10.7099 2.7649,1.6495 c 1.3566,-2.1643 2.9494,-2.8415 4.7761,-2.0285 0.9003,0.4011 1.5063,0.953 1.8124,1.6591 0.3119,0.7036 0.3085,1.4029 -0.003,2.1016 -0.1834,0.4122 -0.4274,0.7223 -0.7359,0.9278 -0.3101,0.2098 -0.6927,0.322 -1.1454,0.3424 -0.453,0.0202 -1.482,-0.0697 -3.0992,-0.2656 -1.4476,-0.1808 -2.5673,-0.18 -3.3587,0.0122 -0.7937,0.1863 -1.5293,0.5698 -2.2065,1.1506 -0.6769,0.5811 -1.2019,1.2954 -1.5783,2.1413 -0.4386,0.9847 -0.6109,1.9718 -0.5174,2.9613 0.1004,0.9879 0.4527,1.861 1.0599,2.615 0.6129,0.752 1.4953,1.387 2.6566,1.904 1.7425,0.7759 3.3115,0.9097 4.7092,0.3975 1.4003,-0.506 2.5212,-1.6305 3.3594,-3.3653 l -2.9211,-1.4922 c -0.5675,0.9122 -1.1509,1.4641 -1.7612,1.6566 -0.6038,0.1902 -1.313,0.106 -2.1166,-0.2517 -0.8039,-0.3581 -1.3516,-0.8037 -1.6353,-1.3335 -0.2878,-0.5312 -0.3212,-1.0451 -0.0961,-1.5502 0.2188,-0.4924 0.6006,-0.817 1.146,-0.9774 0.5474,-0.1647 1.6192,-0.1262 3.2176,0.1015 1.7011,0.233 2.9911,0.2576 3.8738,0.0762 0.8828,-0.1822 1.6736,-0.5765 2.3641,-1.1764 0.6931,-0.6043 1.2799,-1.4473 1.7632,-2.5333 0.699,-1.5692 0.8013,-3.1022 0.3138,-4.6003 -0.4924,-1.4996 -1.7649,-2.7065 -3.8186,-3.621 -3.632,-1.6172 -6.5761,-0.4518 -8.8239,3.4988 z m 30.2003,8.0328 -3.1142,-1.7263 -3.4208,3.2446 -5.6648,-3.14 1.0117,-4.5802 -3.0461,-1.6883 -4.0683,20.3663 3.0334,1.6818 15.2691,-14.1579 z m -9.068,3.922 -5.51,5.3414 1.6378,-7.4875 3.8722,2.1461 z m 10.7314,-2.5534 -11.3485,16.2071 2.6115,1.8286 13.0156,-7.0149 -7.5779,10.8221 2.4982,1.7493 11.3482,-16.2071 -2.698,-1.8893 -12.7517,6.823 7.4007,-10.5698 -2.4981,-1.749 z m 13.5952,9.7135 -2.334,2.9874 2.4536,1.9171 2.3344,-2.9875 -2.454,-1.917 z m 13.7208,11.4536 -11.2093,12.0209 -3.5238,-3.2862 -2.2841,2.4491 9.4263,8.7906 2.2842,-2.4492 -3.5141,-3.2771 11.2096,-12.0206 -2.3888,-2.2275 z m 7.3182,7.1748 -14.2322,13.7438 2.2686,2.3496 14.2325,-13.744 -2.2689,-2.3494 z m -15.402,15.0593 -2.5815,2.4928 2.1279,2.2034 2.5815,-2.4928 -2.1279,-2.2034 z m 21.4038,2.3789 3.007,1.5916 c 1.3459,-1.8292 2.0279,-3.509 2.0444,-5.0488 0.0127,-1.5369 -0.5321,-2.9434 -1.6351,-4.2125 -1.3872,-1.5956 -3.1266,-2.3539 -5.2154,-2.2779 -2.4129,0.089 -4.8243,1.1843 -7.2332,3.2785 -2.5486,2.2153 -4.0419,4.5207 -4.481,6.9228 -0.3807,2.0826 0.157,3.9651 1.6228,5.6511 1.1909,1.3697 2.6572,2.1093 4.3966,2.221 1.2387,0.0771 2.6461,-0.2982 4.223,-1.1316 l -1.4119,-3.0637 c -0.9465,0.5477 -1.8343,0.7761 -2.67,0.6851 -0.8365,-0.091 -1.5293,-0.4529 -2.0763,-1.0822 -0.7858,-0.904 -1.0336,-1.9823 -0.7402,-3.2383 0.2903,-1.2535 1.3425,-2.6691 3.1575,-4.2466 1.8808,-1.635 3.4611,-2.5203 4.7373,-2.6532 1.2796,-0.1355 2.3046,0.2429 3.0784,1.133 0.5681,0.6533 0.8039,1.4374 0.7107,2.3485 -0.0936,0.9175 -0.5976,1.9598 -1.5146,3.1232 z m 9.5454,0.1287 -2.9466,2.3856 1.9599,2.4202 2.946,-2.3859 -1.9593,-2.4199 z m 8.2868,11.5217 -16.4577,10.688 1.7788,2.7391 13.6607,-8.8716 4.4385,6.8341 2.7969,-1.8162 -6.2172,-9.5734 z m 8.2273,13.9104 -14.2342,8.2182 -2.4092,-4.1728 -2.9004,1.6747 6.4443,11.1622 2.9007,-1.6747 -2.4026,-4.1607 14.2344,-8.2182 -1.633,-2.8287 z m -13.091,17.6896 2.5251,5.4153 c 0.6384,1.3695 1.2759,2.3324 1.9058,2.8877 0.6298,0.555 1.4473,0.9567 2.4463,1.2022 0.9966,0.2523 2.1546,0.2715 3.4687,0.0703 1.3164,-0.2072 2.8304,-0.7098 4.5505,-1.512 1.5531,-0.7243 2.8156,-1.5265 3.8001,-2.4126 0.9802,-0.8844 1.6781,-1.7532 2.0993,-2.6053 0.4164,-0.8501 0.616,-1.7309 0.5981,-2.6527 -0.0184,-0.9218 -0.3027,-1.9783 -0.8634,-3.181 l -2.5991,-5.5735 -17.9314,8.3616 z m 4.4136,1.5407 11.8737,-5.5367 1.0395,2.2292 c 0.4439,0.9519 0.6795,1.686 0.6984,2.1954 0.021,0.5142 -0.087,0.9913 -0.3234,1.4318 -0.2347,0.4451 -0.7018,0.9371 -1.4028,1.4825 -0.6968,0.5437 -1.6875,1.1123 -2.9691,1.7099 -1.3277,0.6194 -2.4182,1.0162 -3.2723,1.1905 -0.8495,0.1727 -1.5874,0.171 -2.2067,-0.013 -0.6237,-0.182 -1.1297,-0.5151 -1.5262,-1.0063 -0.3033,-0.3668 -0.7274,-1.1449 -1.2821,-2.3346 l -0.629,-1.3487 z m 20.2169,5.3334 -3.5149,1.4204 1.1664,2.8874 3.515,-1.4202 -1.1665,-2.8876 z m -1.7966,14.3175 0.5137,3.1785 c 2.5302,-0.3518 4.0731,0.4328 4.6239,2.3547 0.2718,0.9476 0.2383,1.7668 -0.1058,2.4551 -0.3384,0.6913 -0.8767,1.1378 -1.6118,1.3487 -0.4337,0.1244 -0.8282,0.1369 -1.1834,0.0326 -0.3606,-0.1026 -0.692,-0.3237 -0.9987,-0.6576 -0.3067,-0.3337 -0.8991,-1.1798 -1.7889,-2.5447 -0.7917,-1.2248 -1.512,-2.0823 -2.1682,-2.5648 -0.6529,-0.4887 -1.4196,-0.8056 -2.2998,-0.951 -0.8804,-0.1451 -1.7648,-0.0879 -2.6549,0.1675 -1.0361,0.2971 -1.9029,0.7994 -2.6008,1.5075 -0.6925,0.7112 -1.1347,1.5426 -1.3221,2.4922 -0.1822,0.953 -0.1015,2.0373 0.2492,3.2593 0.5255,1.8334 1.4315,3.1215 2.7227,3.863 1.2877,0.7475 2.8695,0.8833 4.7372,0.4102 l -0.7344,-3.1969 c -1.0636,0.1516 -1.8618,0.0595 -2.4013,-0.284 -0.5337,-0.3408 -0.9252,-0.938 -1.1678,-1.7836 -0.2427,-0.8459 -0.2532,-1.552 -0.0298,-2.1098 0.2222,-0.5618 0.5944,-0.9179 1.1256,-1.0704 0.5185,-0.1485 1.0123,-0.0646 1.4857,0.25 0.4779,0.3133 1.1375,1.1594 1.9905,2.5297 0.915,1.4533 1.7251,2.4573 2.4318,3.0166 0.707,0.5593 1.5174,0.9119 2.4208,1.0551 0.9082,0.142 1.9312,0.0501 3.0736,-0.2776 1.6518,-0.4733 2.8916,-1.3801 3.7259,-2.7167 0.8325,-1.3411 0.9391,-3.092 0.3194,-5.2529 -1.0956,-3.8216 -3.8806,-5.328 -8.3523,-4.5107 z m 12.3452,-0.0318 -1.5321,0.4394 c 0.301,0.6993 0.5417,1.3541 0.718,1.9695 0.1689,0.589 0.1794,1.0602 0.0388,1.4216 -0.1462,0.3586 -0.3968,0.5882 -0.7509,0.6899 -0.3191,0.0913 -0.6176,0.0525 -0.8858,-0.1292 -0.2718,-0.1809 -0.4703,-0.4882 -0.5936,-0.9179 -0.1292,-0.4516 -0.1771,-0.9363 -0.1417,-1.4641 l -1.2053,0.6429 c -0.0717,0.6194 -0.0173,1.2606 0.1707,1.9157 0.2335,0.8149 0.646,1.4011 1.2421,1.7574 0.5953,0.3561 1.2543,0.4312 1.9806,0.2226 0.8277,-0.2373 1.4173,-0.7563 1.7589,-1.5537 0.3401,-0.8022 0.3432,-1.7949 0.004,-2.9772 -0.2627,-0.9168 -0.5332,-1.5917 -0.8036,-2.0169 z m -1.2223,17.5955 -16.1345,3.136 -0.9193,-4.7299 -3.2876,0.6392 2.4593,12.6522 3.2877,-0.639 -0.9168,-4.7163 16.1343,-3.1365 -0.6231,-3.2057 z m 1.8587,10.152 -19.5928,2.7536 0.4547,3.2343 19.5928,-2.7538 -0.4547,-3.2341 z m -21.312,3.13 -3.5535,0.4995 0.426,3.0336 3.5538,-0.4994 -0.4263,-3.0337 z m 22.1267,3.5853 -3.7545,0.5278 0.4334,3.0835 3.7545,-0.5275 -0.4334,-3.0838 z"
         style="fill:#ffffff;fill-opacity:1;fill-rule:nonzero;stroke:none"
         id="path4212-0-3-1"
         inkscape:connector-curvature="0" />
    </g>
  </g>
</svg>
